<svg id="oval-group.svg" xmlns="http://www.w3.org/2000/svg" width="21.312" height="275.562" viewBox="0 0 21.312 275.562">
  <defs>
    <style>
      .cls-1 {
        fill: #bec8d1;
        fill-rule: evenodd;
      }
    </style>
  </defs>
  <path id="Oval" class="cls-1" d="M207.889,536.555a0.889,0.889,0,1,0,.889-0.889A0.889,0.889,0,0,0,207.889,536.555Z" transform="translate(-188.344 -281.438)"/>
  <path id="Oval-2" data-name="Oval" class="cls-1" d="M207.889,556.11a0.889,0.889,0,1,0,.889-0.889A0.889,0.889,0,0,0,207.889,556.11Z" transform="translate(-188.344 -281.438)"/>
  <path id="Oval-3" data-name="Oval" class="cls-1" d="M188.333,282.332a0.889,0.889,0,1,0,.889-0.888A0.889,0.889,0,0,0,188.333,282.332Z" transform="translate(-188.344 -281.438)"/>
  <path id="Oval-4" data-name="Oval" class="cls-1" d="M188.333,301.888a0.889,0.889,0,1,0,.889-0.889A0.889,0.889,0,0,0,188.333,301.888Z" transform="translate(-188.344 -281.438)"/>
  <path id="Oval-5" data-name="Oval" class="cls-1" d="M188.333,321.443a0.889,0.889,0,1,0,.889-0.888A0.888,0.888,0,0,0,188.333,321.443Z" transform="translate(-188.344 -281.438)"/>
  <path id="Oval-6" data-name="Oval" class="cls-1" d="M188.333,341a0.889,0.889,0,1,0,.889-0.889A0.889,0.889,0,0,0,188.333,341Z" transform="translate(-188.344 -281.438)"/>
  <path id="Oval-7" data-name="Oval" class="cls-1" d="M188.333,360.555a0.889,0.889,0,1,0,.889-0.889A0.888,0.888,0,0,0,188.333,360.555Z" transform="translate(-188.344 -281.438)"/>
  <path id="Oval-8" data-name="Oval" class="cls-1" d="M188.333,380.11a0.889,0.889,0,1,0,.889-0.889A0.889,0.889,0,0,0,188.333,380.11Z" transform="translate(-188.344 -281.438)"/>
  <path id="Oval-9" data-name="Oval" class="cls-1" d="M188.333,399.666a0.889,0.889,0,1,0,.889-0.889A0.889,0.889,0,0,0,188.333,399.666Z" transform="translate(-188.344 -281.438)"/>
  <path id="Oval-10" data-name="Oval" class="cls-1" d="M188.333,419.222a0.889,0.889,0,1,0,.889-0.889A0.889,0.889,0,0,0,188.333,419.222Z" transform="translate(-188.344 -281.438)"/>
  <path id="Oval-11" data-name="Oval" class="cls-1" d="M188.333,438.777a0.889,0.889,0,1,0,.889-0.889A0.889,0.889,0,0,0,188.333,438.777Z" transform="translate(-188.344 -281.438)"/>
  <path id="Oval-12" data-name="Oval" class="cls-1" d="M188.333,458.333a0.889,0.889,0,1,0,.889-0.889A0.89,0.89,0,0,0,188.333,458.333Z" transform="translate(-188.344 -281.438)"/>
  <path id="Oval-13" data-name="Oval" class="cls-1" d="M188.333,477.888a0.889,0.889,0,1,0,.889-0.888A0.889,0.889,0,0,0,188.333,477.888Z" transform="translate(-188.344 -281.438)"/>
  <path id="Oval-14" data-name="Oval" class="cls-1" d="M188.333,497.444a0.889,0.889,0,1,0,.889-0.889A0.89,0.89,0,0,0,188.333,497.444Z" transform="translate(-188.344 -281.438)"/>
  <path id="Oval-15" data-name="Oval" class="cls-1" d="M188.333,517a0.889,0.889,0,1,0,.889-0.89A0.889,0.889,0,0,0,188.333,517Z" transform="translate(-188.344 -281.438)"/>
  <path id="Oval-16" data-name="Oval" class="cls-1" d="M188.333,536.555a0.889,0.889,0,1,0,.889-0.889A0.889,0.889,0,0,0,188.333,536.555Z" transform="translate(-188.344 -281.438)"/>
  <path id="Oval-17" data-name="Oval" class="cls-1" d="M188.333,556.11a0.889,0.889,0,1,0,.889-0.889A0.889,0.889,0,0,0,188.333,556.11Z" transform="translate(-188.344 -281.438)"/>
</svg>
